<?xml version="1.0" standalone="no"?>
<!DOCTYPE svg PUBLIC "-//W3C//DTD SVG 20010904//EN"
 "http://www.w3.org/TR/2001/REC-SVG-20010904/DTD/svg10.dtd">
<svg version="1.0" xmlns="http://www.w3.org/2000/svg"
 width="1024.000000pt" height="346.000000pt" viewBox="0 0 1024.000000 346.000000"
 preserveAspectRatio="xMidYMid meet">

<g transform="translate(0.000000,346.000000) scale(0.100000,-0.100000)"
fill="#000000" stroke="none">
<path d="M0 3369 l0 -87 158 -4 c136 -3 163 -6 192 -24 l35 -20 0 -1084 0
-1084 -34 -20 c-29 -17 -58 -20 -192 -24 l-159 -5 0 -89 0 -90 45 7 c38 5 992
7 1105 2 l35 -2 3 86 3 86 -153 5 c-109 4 -165 10 -194 22 l-41 17 -7 76 c-3
42 -6 209 -6 372 l0 296 195 188 c107 103 199 187 203 187 8 -1 122 -172 459
-686 188 -287 223 -347 223 -377 0 -62 -57 -97 -157 -97 l-43 0 0 -91 0 -92
49 7 c65 8 906 9 960 0 l41 -7 0 92 0 91 -67 0 c-85 0 -187 16 -230 37 -49 23
-95 76 -187 218 l-85 130 275 3 275 2 -3 63 -3 62 -54 8 c-66 9 -130 43 -150
79 -15 25 -12 36 44 205 l60 178 334 0 334 0 69 -205 c37 -112 68 -210 68
-216 0 -21 -56 -37 -147 -42 l-93 -4 0 -64 0 -64 415 0 415 0 0 65 0 65 -80 0
c-101 0 -177 16 -190 40 -20 37 -318 929 -312 934 3 3 31 6 62 6 l57 0 12 118
c41 410 104 525 323 590 68 21 91 22 303 20 l229 -3 13 -25 c10 -20 13 -250
13 -1081 0 -993 -1 -1057 -18 -1072 -37 -33 -78 -39 -310 -45 l-233 -5 3 -86
3 -86 40 1 c144 6 1374 4 1415 -2 l50 -7 0 90 0 90 -227 5 c-227 6 -269 12
-305 45 -17 15 -18 79 -18 1084 0 957 2 1069 16 1083 13 14 48 16 222 16 114
0 234 -5 267 -10 83 -13 196 -71 239 -122 61 -71 109 -237 122 -425 l7 -93
-127 0 -126 0 0 -83 0 -84 165 -9 c142 -8 168 -12 192 -30 l28 -21 3 -1071 2
-1071 -32 -23 c-31 -21 -45 -23 -195 -27 l-163 -3 0 -89 0 -89 1114 0 c1061 0
1115 1 1120 18 7 20 74 444 108 675 l23 157 80 2 c150 3 570 -3 608 -8 l37 -6
0 91 c0 88 -1 91 -23 91 -53 0 -132 33 -169 70 -63 63 -59 76 95 311 73 112
181 279 240 370 59 91 115 173 125 182 17 16 28 1 212 -286 244 -379 360 -567
360 -583 0 -19 -102 -53 -181 -60 l-70 -7 3 -86 3 -86 35 2 c116 5 1012 4
1043 -2 l37 -7 0 89 0 90 -155 5 c-229 8 -214 -3 -398 283 -567 882 -648 1014
-636 1036 76 142 514 794 553 823 85 64 216 104 374 113 l102 6 0 86 0 86
-490 0 -490 0 0 -87 0 -88 28 0 c54 0 128 -29 165 -65 55 -54 56 -74 8 -153
-44 -73 -325 -505 -353 -543 l-17 -24 -18 23 c-22 27 -354 547 -409 640 -31
52 -35 65 -23 73 26 17 114 40 177 46 l62 6 0 86 0 86 -557 -2 -558 -2 -3 -86
-3 -85 114 0 c125 0 201 -11 259 -36 42 -19 29 0 490 -723 131 -206 237 -380
234 -387 -3 -7 -142 -224 -311 -482 -188 -290 -321 -484 -347 -507 -70 -64
-138 -89 -251 -93 -73 -3 -100 -8 -104 -18 -4 -10 -23 -14 -69 -14 l-64 0 0
-90 0 -91 51 7 c49 7 50 6 45 -17 -64 -288 -110 -394 -217 -494 -58 -54 -141
-95 -254 -127 -74 -20 -106 -22 -445 -26 -384 -4 -461 0 -485 24 -13 13 -15
87 -15 535 l0 519 193 0 c320 -1 406 -25 459 -131 30 -59 48 -150 48 -246 l0
-63 75 0 75 0 0 535 0 535 -74 0 -73 0 -6 -107 c-8 -142 -28 -206 -81 -259
-65 -65 -110 -75 -383 -81 l-233 -6 0 470 c0 434 1 472 18 491 16 20 31 21
282 27 616 15 817 -40 928 -253 56 -107 78 -191 117 -449 l7 -43 74 0 c61 0
74 3 74 16 0 23 -99 854 -105 882 l-5 22 -885 0 -885 0 0 22 c0 40 -60 762
-65 786 l-5 22 -1165 0 -1164 0 -5 -42 c-3 -24 -17 -194 -31 -378 -15 -184
-29 -354 -33 -377 -7 -40 -16 -17 -152 383 -96 283 -150 429 -162 435 -21 11
-99 11 -117 0 -13 -9 -170 -464 -467 -1356 -143 -428 -148 -441 -188 -480 -44
-43 -95 -63 -182 -72 l-52 -6 -302 453 -301 453 38 39 c21 22 182 180 358 352
352 344 379 364 540 411 51 15 130 28 183 32 l93 6 -3 84 -3 84 -443 2 -442 2
0 -87 c0 -88 0 -88 25 -88 73 0 147 -78 126 -132 -9 -23 -455 -470 -891 -893
l-235 -228 -7 54 c-8 70 -10 1087 -2 1128 11 55 45 65 232 69 l163 4 -3 85 -3
84 -593 2 -592 2 0 -86z m3079 -811 l140 -418 -290 0 c-229 0 -290 3 -287 13
3 6 68 200 144 429 76 230 142 412 145 405 4 -7 70 -200 148 -429z"/>
</g>
</svg>
