<?xml version="1.0" standalone="no"?>
<!DOCTYPE svg PUBLIC "-//W3C//DTD SVG 20010904//EN"
 "http://www.w3.org/TR/2001/REC-SVG-20010904/DTD/svg10.dtd">
<svg version="1.0" xmlns="http://www.w3.org/2000/svg"
 width="1386.000000pt" height="260.000000pt" viewBox="0 0 1386.000000 260.000000"
 preserveAspectRatio="xMidYMid meet">

<g transform="translate(0.000000,260.000000) scale(0.100000,-0.100000)"
fill="#000000" stroke="none">
<path d="M6450 1320 l0 -1280 330 0 329 0 3 568 c3 541 4 568 22 597 54 84
108 116 196 116 71 1 120 -21 161 -70 62 -75 63 -81 67 -673 l3 -538 330 0
329 0 0 553 c0 687 -7 759 -96 945 -101 210 -274 314 -524 315 -173 1 -307
-49 -429 -160 l-61 -55 0 481 0 481 -330 0 -330 0 0 -1280z"/>
<path d="M146 2448 c-5 -25 -147 -2324 -146 -2375 l0 -33 299 0 299 0 6 63 c8
92 33 687 52 1222 8 259 19 479 24 490 8 19 9 18 9 -4 2 -61 142 -716 250
-1171 67 -278 123 -515 126 -527 l5 -23 260 0 c238 0 259 1 264 18 109 366
416 1471 468 1682 l23 95 6 -490 c6 -451 20 -966 35 -1242 l6 -113 319 0 319
0 -5 78 c-9 112 -115 2253 -115 2307 l0 45 -433 0 -434 0 -103 -362 c-100
-353 -208 -772 -265 -1030 -16 -71 -32 -128 -35 -128 -3 0 -12 35 -19 78 -25
153 -94 465 -207 932 -63 261 -117 483 -120 493 -5 16 -35 17 -444 17 l-440 0
-4 -22z"/>
<path d="M9100 1718 c0 -437 -4 -790 -10 -840 -14 -122 -42 -193 -99 -248 -69
-68 -130 -84 -285 -77 -67 3 -147 12 -179 20 -56 14 -57 14 -62 -7 -11 -48
-67 -508 -62 -512 3 -3 47 -14 98 -25 134 -29 418 -36 556 -15 207 31 344 95
464 215 91 91 156 212 193 362 41 162 46 278 46 1102 l0 777 -330 0 -330 0 0
-752z"/>
<path d="M5463 2233 l-313 -86 0 -164 0 -163 -110 0 -110 0 0 -245 0 -245 110
0 110 0 0 -342 c0 -189 5 -383 10 -433 33 -296 164 -462 421 -532 112 -31 413
-21 537 18 l32 11 0 248 0 249 -78 -6 c-111 -8 -166 2 -207 39 -60 52 -66 92
-72 441 l-6 307 187 0 186 0 0 245 0 245 -185 0 -185 0 0 250 c0 138 -3 250
-7 249 -5 0 -149 -39 -320 -86z"/>
<path d="M3727 1849 c-117 -10 -230 -31 -347 -65 -112 -33 -220 -83 -220 -102
0 -14 101 -393 107 -401 1 -2 33 10 70 27 279 127 628 132 703 9 37 -61 33
-63 -102 -70 -602 -32 -929 -291 -905 -716 12 -216 122 -383 312 -472 104 -49
190 -63 330 -56 170 9 279 49 392 144 l52 43 16 -75 17 -75 299 0 299 0 -6 33
c-3 17 -8 41 -11 52 -3 11 -9 268 -13 570 -7 518 -9 555 -29 635 -35 136 -83
223 -176 315 -125 126 -264 183 -494 205 -117 11 -151 11 -294 -1z m353 -1106
c0 -126 -15 -169 -75 -222 -51 -45 -93 -61 -157 -61 -105 0 -168 59 -168 157
0 31 7 71 17 90 39 82 165 133 356 142 l27 1 0 -107z"/>
<path d="M10725 1850 c-184 -16 -371 -61 -507 -122 -37 -17 -68 -36 -68 -42 0
-17 102 -390 110 -399 3 -4 36 6 73 23 307 139 682 125 713 -27 l6 -30 -124
-6 c-344 -18 -579 -100 -737 -257 -107 -106 -157 -221 -167 -385 -11 -173 41
-319 156 -436 108 -110 225 -158 401 -166 197 -9 364 40 477 142 56 51 51 54
73 -47 l12 -58 299 0 300 0 -6 27 c-17 79 -26 310 -26 680 0 240 -5 444 -11
489 -46 331 -240 536 -564 597 -102 20 -295 28 -410 17z m345 -1110 c0 -127
-13 -164 -76 -220 -50 -44 -93 -60 -156 -60 -104 0 -168 64 -168 165 0 89 63
161 167 191 50 14 148 30 206 33 l27 1 0 -110z"/>
<path d="M11910 1814 c0 -3 129 -198 287 -432 157 -235 286 -431 286 -437 0
-5 -127 -206 -283 -445 -155 -239 -285 -440 -287 -447 -4 -10 67 -13 354 -13
l359 0 71 158 c39 86 92 207 119 269 l48 111 37 -86 c20 -48 77 -169 128 -269
l91 -183 371 0 c318 0 370 2 366 14 -3 8 -130 216 -282 461 -151 246 -277 450
-278 455 -1 4 123 191 277 416 153 224 280 414 283 421 4 11 -61 13 -351 11
l-357 -3 -93 -200 c-51 -110 -103 -226 -116 -257 l-24 -58 -103 198 c-57 108
-118 225 -135 260 l-32 62 -368 0 c-202 0 -368 -3 -368 -6z"/>
</g>
</svg>
